<?xml version="1.0" encoding="UTF-8"?>
<svg width="274px" height="59px" viewBox="0 0 274 59" version="1.1" xmlns="http://www.w3.org/2000/svg" xmlns:xlink="http://www.w3.org/1999/xlink">
    <!-- Generator: Sketch 41.2 (35397) - http://www.bohemiancoding.com/sketch -->
    <title>Page 1</title>
    <desc>Created with Sketch.</desc>
    <defs>
        <polygon id="path-1" points="0 58.3622 273.337 58.3622 273.337 0.0002 0 0.0002"></polygon>
    </defs>
    <g id="Page-1" stroke="none" stroke-width="1" fill="none" fill-rule="evenodd">
        <g>
            <path d="M39.8252,48.7229 C40.1182,48.7589 40.4242,48.7859 40.7442,48.8029 C41.0642,48.8209 41.3652,48.8299 41.6492,48.8299 C42.6702,48.8299 43.5402,48.7499 44.2582,48.5899 C44.9782,48.4299 45.5642,48.1969 46.0162,47.8909 C46.4692,47.5849 46.7972,47.2119 47.0012,46.7719 C47.2052,46.3329 47.3082,45.8339 47.3082,45.2739 C47.3082,44.5819 47.1412,44.0149 46.8092,43.5699 C46.4762,43.1269 46.0032,42.7889 45.3902,42.5589 C45.0092,42.4169 44.5702,42.3169 44.0722,42.2589 C43.5752,42.2019 42.9992,42.1729 42.3412,42.1729 L39.8252,42.1729 L39.8252,48.7229 Z M39.8252,58.0299 L37.6552,58.0299 L37.6552,40.2159 L42.5892,40.2159 C43.3252,40.2159 44.0052,40.2599 44.6312,40.3489 C45.2552,40.4369 45.8302,40.5749 46.3532,40.7609 C47.4162,41.1429 48.2242,41.7129 48.7732,42.4719 C49.3232,43.2309 49.5982,44.1649 49.5982,45.2739 C49.5982,46.1799 49.4182,46.9769 49.0592,47.6649 C48.7002,48.3529 48.1802,48.9279 47.4972,49.3889 C46.8142,49.8509 45.9832,50.1989 45.0042,50.4339 C44.0252,50.6689 42.9142,50.7869 41.6732,50.7869 C41.0792,50.7869 40.4632,50.7599 39.8252,50.7069 L39.8252,58.0299 Z" id="Fill-1" fill="#999999"></path>
            <polygon id="Fill-3" fill="#999999" points="54.5877 47.9242 63.9217 47.9242 63.9217 40.2152 66.0917 40.2152 66.0917 58.0292 63.9217 58.0292 63.9217 49.8812 54.5877 49.8812 54.5877 58.0292 52.4177 58.0292 52.4177 40.2152 54.5877 40.2152"></polygon>
            <polygon id="Fill-5" fill="#999999" points="77.2687 50.8668 77.2687 58.0298 75.0987 58.0298 75.0987 50.8668 68.6147 40.2158 70.9847 40.2158 76.1507 48.8698 76.2167 48.8698 81.3827 40.2158 83.7527 40.2158"></polygon>
            <g id="Group-9" transform="translate(85.000000, 39.362200)" fill="#999999">
                <path d="M2.4616,5.5661 C2.4616,6.0901 2.5676,6.5221 2.7796,6.8641 C2.9926,7.2061 3.2776,7.4881 3.6366,7.7101 C3.9946,7.9321 4.4106,8.1141 4.8846,8.2561 C5.3576,8.3981 5.8516,8.5311 6.3646,8.6551 C7.0546,8.8241 7.7346,9.0101 8.4026,9.2141 C9.0706,9.4191 9.6666,9.7001 10.1886,10.0601 C10.7106,10.4191 11.1336,10.8881 11.4566,11.4651 C11.7796,12.0421 11.9406,12.7821 11.9406,13.6881 C11.9406,14.6111 11.7666,15.4081 11.4166,16.0781 C11.0666,16.7481 10.5826,17.2981 9.9646,17.7291 C9.3476,18.1591 8.6166,18.4791 7.7736,18.6871 C6.9306,18.8951 6.0076,19.0001 5.0046,19.0001 C4.5426,19.0001 4.0706,18.9721 3.5866,18.9141 C3.1026,18.8561 2.6416,18.7781 2.2026,18.6811 C1.7626,18.5831 1.3656,18.4721 1.0106,18.3481 C0.6556,18.2241 0.3756,18.1001 0.1716,17.9751 L0.1716,15.9911 C0.4906,16.1511 0.8506,16.2981 1.2496,16.4301 C1.6496,16.5641 2.0626,16.6771 2.4876,16.7701 C2.9146,16.8631 3.3446,16.9361 3.7796,16.9901 C4.2146,17.0431 4.6226,17.0701 5.0046,17.0701 C5.6256,17.0701 6.2186,17.0171 6.7816,16.9101 C7.3456,16.8031 7.8406,16.6261 8.2666,16.3771 C8.6926,16.1291 9.0296,15.7891 9.2786,15.3591 C9.5276,14.9281 9.6516,14.3891 9.6516,13.7411 C9.6516,13.2091 9.5426,12.7691 9.3256,12.4231 C9.1076,12.0771 8.8166,11.7911 8.4526,11.5641 C8.0886,11.3381 7.6696,11.1531 7.1946,11.0121 C6.7196,10.8701 6.2206,10.7371 5.6966,10.6121 C5.0046,10.4531 4.3276,10.2731 3.6666,10.0731 C3.0056,9.8741 2.4146,9.5961 1.8956,9.2411 C1.3766,8.8861 0.9596,8.4291 0.6436,7.8701 C0.3286,7.3111 0.1716,6.5961 0.1716,5.7261 C0.1716,4.8211 0.3366,4.0421 0.6676,3.3891 C0.9996,2.7371 1.4476,2.1981 2.0126,1.7711 C2.5786,1.3461 3.2286,1.0311 3.9656,0.8261 C4.7026,0.6221 5.4876,0.5201 6.3226,0.5201 C7.2726,0.5201 8.1576,0.6111 8.9786,0.7931 C9.7996,0.9751 10.5516,1.2131 11.2356,1.5061 L11.2356,3.5161 C10.4986,3.2051 9.7376,2.9521 8.9526,2.7571 C8.1666,2.5621 7.3256,2.4601 6.4286,2.4511 C5.7546,2.4511 5.1686,2.5241 4.6716,2.6701 C4.1746,2.8171 3.7616,3.0261 3.4336,3.2961 C3.1046,3.5671 2.8606,3.8951 2.7006,4.2811 C2.5416,4.6681 2.4616,5.0961 2.4616,5.5661" id="Fill-7"></path>
            </g>
            <mask id="mask-2" fill="white">
                <use xlink:href="#path-1"></use>
            </mask>
            <g id="Clip-11"></g>
            <polygon id="Fill-10" fill="#999999" mask="url(#mask-2)" points="100.594 58.0292 102.764 58.0292 102.764 40.2152 100.594 40.2152"></polygon>
            <path d="M120.8156,49.1357 C120.8156,47.9377 120.6586,46.8807 120.3446,45.9667 C120.0306,45.0527 119.5966,44.2897 119.0456,43.6767 C118.4936,43.0647 117.8436,42.6007 117.0936,42.2857 C116.3446,41.9707 115.5386,41.8127 114.6776,41.8127 C113.8166,41.8127 113.0106,41.9707 112.2616,42.2857 C111.5126,42.6007 110.8616,43.0647 110.3096,43.6767 C109.7576,44.2897 109.3256,45.0527 109.0106,45.9667 C108.6966,46.8807 108.5396,47.9377 108.5396,49.1357 C108.5396,50.3337 108.6996,51.3887 109.0176,52.2977 C109.3356,53.2077 109.7716,53.9687 110.3226,54.5807 C110.8746,55.1937 111.5256,55.6557 112.2746,55.9657 C113.0236,56.2767 113.8336,56.4317 114.7046,56.4317 C115.5656,56.4317 116.3666,56.2767 117.1066,55.9657 C117.8476,55.6557 118.4936,55.1937 119.0456,54.5807 C119.5966,53.9687 120.0306,53.2077 120.3446,52.2977 C120.6586,51.3887 120.8156,50.3337 120.8156,49.1357 M122.9726,49.1357 C122.9726,50.4847 122.7786,51.7227 122.3906,52.8507 C122.0036,53.9777 121.4486,54.9497 120.7266,55.7667 C120.0046,56.5827 119.1346,57.2197 118.1186,57.6767 C117.1016,58.1337 115.9626,58.3617 114.7036,58.3617 C113.4006,58.3617 112.2336,58.1337 111.2036,57.6767 C110.1736,57.2197 109.3016,56.5827 108.5886,55.7667 C107.8756,54.9497 107.3286,53.9777 106.9506,52.8507 C106.5726,51.7227 106.3826,50.4847 106.3826,49.1357 C106.3826,47.7777 106.5786,46.5327 106.9706,45.4007 C107.3626,44.2697 107.9166,43.2957 108.6346,42.4787 C109.3526,41.6627 110.2216,41.0257 111.2426,40.5677 C112.2646,40.1107 113.4096,39.8827 114.6776,39.8827 C115.9726,39.8827 117.1316,40.1107 118.1576,40.5677 C119.1836,41.0257 120.0536,41.6627 120.7666,42.4787 C121.4796,43.2957 122.0256,44.2697 122.4046,45.4007 C122.7836,46.5327 122.9726,47.7777 122.9726,49.1357" id="Fill-12" fill="#999999" mask="url(#mask-2)"></path>
            <polygon id="Fill-13" fill="#999999" mask="url(#mask-2)" points="132.4797 58.0296 130.3097 58.0296 130.3097 42.1726 124.3577 42.1726 124.3577 40.2156 138.4307 40.2156 138.4307 42.1726 132.4797 42.1726"></polygon>
            <polygon id="Fill-14" fill="#999999" mask="url(#mask-2)" points="143.8464 47.9242 153.1804 47.9242 153.1804 40.2152 155.3504 40.2152 155.3504 58.0292 153.1804 58.0292 153.1804 49.8812 143.8464 49.8812 143.8464 58.0292 141.6764 58.0292 141.6764 40.2152 143.8464 40.2152"></polygon>
            <polygon id="Fill-15" fill="#999999" mask="url(#mask-2)" points="161.04 56.0726 170.173 56.0726 170.173 58.0296 158.87 58.0296 158.87 40.2156 169.681 40.2156 169.681 42.1726 161.04 42.1726 161.04 47.9246 168.722 47.9246 168.722 49.8816 161.04 49.8816"></polygon>
            <path d="M175.5097,42.1725 L175.5097,48.6965 L177.6537,48.6965 C178.3197,48.6965 178.8877,48.6745 179.3577,48.6295 C179.8277,48.5855 180.2497,48.5055 180.6227,48.3905 C181.3767,48.1595 181.9587,47.7915 182.3667,47.2855 C182.7747,46.7795 182.9787,46.1175 182.9787,45.3015 C182.9707,44.5385 182.7747,43.9235 182.3937,43.4575 C182.0117,42.9915 181.4827,42.6565 180.8087,42.4515 C180.4897,42.3545 180.1077,42.2835 179.6637,42.2395 C179.2197,42.1945 178.6567,42.1725 177.9727,42.1725 L175.5097,42.1725 Z M175.5097,50.6535 L175.5097,58.0295 L173.3397,58.0295 L173.3397,40.2155 L177.9537,40.2155 C178.7347,40.2155 179.3977,40.2435 179.9427,40.3015 C180.4877,40.3595 180.9867,40.4505 181.4387,40.5755 C182.6807,40.9115 183.6287,41.4865 184.2847,42.2985 C184.9407,43.1115 185.2687,44.1255 185.2687,45.3415 C185.2687,46.0605 185.1537,46.7045 184.9227,47.2715 C184.6917,47.8395 184.3677,48.3325 183.9507,48.7495 C183.5337,49.1665 183.0347,49.5085 182.4527,49.7745 C181.8717,50.0415 181.2257,50.2365 180.5157,50.3605 L180.5157,50.4145 L185.7887,58.0295 L183.6187,58.0295 L178.1327,50.6535 L175.5097,50.6535 Z" id="Fill-16" fill="#999999" mask="url(#mask-2)"></path>
            <path d="M196.356,42.9848 C195.562,45.2018 194.802,47.2168 194.079,49.0288 L193.413,50.7068 L199.318,50.7068 L198.642,49.0308 C197.911,47.1858 197.167,45.1708 196.409,42.9848 L196.356,42.9848 Z M188.181,58.0298 L195.437,40.2158 L197.315,40.2158 L204.571,58.0298 L202.214,58.0298 L200.087,52.6638 L192.638,52.6638 L190.511,58.0298 L188.181,58.0298 Z" id="Fill-17" fill="#999999" mask="url(#mask-2)"></path>
            <path d="M209.2579,48.7229 C209.5509,48.7589 209.8569,48.7859 210.1769,48.8029 C210.4969,48.8209 210.7979,48.8299 211.0819,48.8299 C212.1029,48.8299 212.9729,48.7499 213.6909,48.5899 C214.4109,48.4299 214.9969,48.1969 215.4489,47.8909 C215.9019,47.5849 216.2299,47.2119 216.4339,46.7719 C216.6379,46.3329 216.7409,45.8339 216.7409,45.2739 C216.7409,44.5819 216.5739,44.0149 216.2419,43.5699 C215.9089,43.1269 215.4359,42.7889 214.8229,42.5589 C214.4419,42.4169 214.0029,42.3169 213.5049,42.2589 C213.0079,42.2019 212.4319,42.1729 211.7739,42.1729 L209.2579,42.1729 L209.2579,48.7229 Z M209.2579,58.0299 L207.0879,58.0299 L207.0879,40.2159 L212.0219,40.2159 C212.7579,40.2159 213.4379,40.2599 214.0639,40.3489 C214.6879,40.4369 215.2629,40.5749 215.7859,40.7609 C216.8489,41.1429 217.6569,41.7129 218.2059,42.4719 C218.7559,43.2309 219.0309,44.1649 219.0309,45.2739 C219.0309,46.1799 218.8509,46.9769 218.4919,47.6649 C218.1329,48.3529 217.6129,48.9279 216.9299,49.3889 C216.2469,49.8509 215.4159,50.1989 214.4369,50.4339 C213.4579,50.6689 212.3469,50.7869 211.1059,50.7869 C210.5119,50.7869 209.8959,50.7599 209.2579,50.7069 L209.2579,58.0299 Z" id="Fill-18" fill="#999999" mask="url(#mask-2)"></path>
            <polygon id="Fill-19" fill="#999999" mask="url(#mask-2)" points="229.1981 50.8668 229.1981 58.0298 227.0281 58.0298 227.0281 50.8668 220.5441 40.2158 222.9141 40.2158 228.0801 48.8698 228.1461 48.8698 233.3121 40.2158 235.6821 40.2158"></polygon>
            <path d="M42.507,28.8082 L63.451,28.8082 L63.451,23.9902 L42.507,23.9902 L42.507,28.8082 Z M42.507,17.2612 L55.918,17.2612 L55.918,12.4432 L42.507,12.4432 L42.507,17.2612 Z M42.507,5.6652 L63.451,5.6652 L63.451,0.8492 L42.507,0.8492 L42.507,5.6652 Z" id="Fill-20" fill="#999999" mask="url(#mask-2)"></path>
            <path d="M89.9252,21.4176 C89.8082,23.2596 89.1232,24.9586 87.8962,26.4226 C86.5972,27.9346 84.6612,28.8326 82.5592,29.2336 C81.1882,29.4926 79.7962,29.5176 78.3312,29.4456 C75.4992,29.2796 72.4042,28.5736 70.1372,26.5646 C69.5942,26.0446 69.0762,25.4546 67.7522,23.3066 L72.7572,21.7486 C73.5122,22.7866 73.7502,23.0226 74.0352,23.2346 C74.5992,23.7076 75.3342,24.0396 76.1832,24.2746 C77.0792,24.5336 78.0952,24.6996 79.1802,24.7716 C80.4322,24.8186 81.7782,24.5806 82.9372,23.9666 C83.9282,23.4006 84.8012,22.4786 84.8482,21.1796 C84.8962,20.3076 84.5192,19.5516 83.7862,19.0086 C82.9372,18.2996 81.8742,17.9446 80.7892,17.5926 C74.6952,15.6076 73.9162,15.3256 73.1832,14.9706 C71.5772,14.1666 70.2562,12.9166 69.5942,11.1696 C68.4842,8.4286 69.3562,4.9096 71.4832,2.7146 C72.3112,1.8866 73.4192,1.2036 74.7652,0.6836 C77.3882,-0.3314 80.7402,-0.1654 83.7402,0.8486 C85.5352,1.4856 87.2122,2.5956 88.4142,4.2026 L89.5262,5.6886 L84.4482,7.2716 L83.8802,6.6356 C82.8652,5.4296 81.1672,4.8866 79.5372,4.7926 C77.8602,4.7206 75.7332,4.9096 74.6952,6.5396 C74.2682,7.2716 73.9882,8.4756 74.3662,9.3036 C74.5532,9.8936 75.1212,10.3186 75.6862,10.6006 C76.0642,10.7916 76.4882,10.9546 76.9852,11.0976 L82.7722,12.9866 C84.4702,13.5526 86.2912,14.2616 87.8242,15.7036 C89.3352,17.1656 90.0692,19.1506 89.9252,21.4176" id="Fill-21" fill="#999999" mask="url(#mask-2)"></path>
            <polygon id="Fill-22" fill="#999999" mask="url(#mask-2)" points="117.1422 0.7533 117.1422 5.5713 107.8622 5.5713 107.8622 28.9513 103.0432 28.9513 103.0432 5.5713 93.7632 5.5713 93.7632 0.7533"></polygon>
            <path d="M157.299,24.3681 L156.424,25.2431 C153.639,28.0061 149.955,29.5181 146.036,29.5181 C137.91,29.5181 131.3,22.9291 131.3,14.7821 C131.3,6.6581 137.91,0.0461 146.036,0.0461 C149.955,0.0461 153.639,1.5811 156.424,4.3431 L157.299,5.1941 L153.922,8.5941 L153.049,7.7201 C151.181,5.8541 148.681,4.8161 146.036,4.8161 C140.532,4.8161 136.068,9.3031 136.068,14.7821 C136.068,20.2841 140.532,24.7461 146.036,24.7461 C148.681,24.7461 151.181,23.7311 153.049,21.8651 L153.922,20.9931 L157.299,24.3681 Z" id="Fill-23" fill="#999999" mask="url(#mask-2)"></path>
            <path d="M186.074,14.8054 C186.074,9.3034 181.587,4.8164 176.085,4.8164 C170.583,4.8164 166.121,9.3034 166.121,14.8054 C166.121,20.3074 170.583,24.7714 176.085,24.7714 C181.587,24.7714 186.074,20.3074 186.074,14.8054 M190.82,14.8054 C190.82,22.9294 184.208,29.5414 176.085,29.5414 C167.961,29.5414 161.349,22.9294 161.349,14.8054 C161.349,6.6824 167.961,0.0464 176.085,0.0464 C184.208,0.0464 190.82,6.6824 190.82,14.8054" id="Fill-24" fill="#999999" mask="url(#mask-2)"></path>
            <path d="M210.6404,16.0557 L206.8624,7.9087 L203.0624,16.0557 L210.6404,16.0557 Z M222.3324,28.8317 L216.6154,28.8317 L212.8604,20.8507 L200.8424,20.8507 L197.1104,28.8317 L191.3964,28.8317 L204.4554,0.8257 L209.2714,0.8257 L222.3324,28.8317 Z" id="Fill-25" fill="#999999" mask="url(#mask-2)"></path>
            <path d="M246.1204,21.4176 C246.0034,23.2596 245.3184,24.9586 244.0914,26.4226 C242.7924,27.9346 240.8564,28.8326 238.7544,29.2336 C237.3834,29.4926 235.9914,29.5176 234.5264,29.4456 C231.6944,29.2796 228.5994,28.5736 226.3324,26.5646 C225.7894,26.0446 225.2714,25.4546 223.9474,23.3066 L228.9524,21.7486 C229.7074,22.7866 229.9454,23.0226 230.2304,23.2346 C230.7944,23.7076 231.5294,24.0396 232.3784,24.2746 C233.2744,24.5336 234.2904,24.6996 235.3754,24.7716 C236.6274,24.8186 237.9734,24.5806 239.1324,23.9666 C240.1234,23.4006 240.9964,22.4786 241.0434,21.1796 C241.0914,20.3076 240.7144,19.5516 239.9814,19.0086 C239.1324,18.2996 238.0694,17.9446 236.9844,17.5926 C230.8904,15.6076 230.1114,15.3256 229.3784,14.9706 C227.7724,14.1666 226.4514,12.9166 225.7894,11.1696 C224.6794,8.4286 225.5514,4.9096 227.6784,2.7146 C228.5064,1.8866 229.6144,1.2036 230.9604,0.6836 C233.5834,-0.3314 236.9354,-0.1654 239.9354,0.8486 C241.7304,1.4856 243.4074,2.5956 244.6094,4.2026 L245.7214,5.6886 L240.6434,7.2716 L240.0754,6.6356 C239.0604,5.4296 237.3624,4.8866 235.7324,4.7926 C234.0554,4.7206 231.9284,4.9096 230.8904,6.5396 C230.4634,7.2716 230.1834,8.4756 230.5614,9.3036 C230.7484,9.8936 231.3164,10.3186 231.8814,10.6006 C232.2594,10.7916 232.6834,10.9546 233.1804,11.0976 L238.9674,12.9866 C240.6654,13.5526 242.4864,14.2616 244.0194,15.7036 C245.5304,17.1656 246.2644,19.1506 246.1204,21.4176" id="Fill-26" fill="#999999" mask="url(#mask-2)"></path>
            <polygon id="Fill-27" fill="#999999" mask="url(#mask-2)" points="273.3374 0.7533 273.3374 5.5713 264.0574 5.5713 264.0574 28.9513 259.2384 28.9513 259.2384 5.5713 249.9584 5.5713 249.9584 0.7533"></polygon>
            <polygon id="Fill-28" fill="#999999" mask="url(#mask-2)" points="33.6996 0.7533 24.2746 21.9353 22.0076 16.7883 29.1396 0.7533 23.9926 0.7533 19.4356 11.0033 14.8546 0.7533 9.7326 0.7533 21.7766 27.8033 22.2686 28.9023 26.3296 28.9023 38.8446 0.7533"></polygon>
            <polygon id="Fill-29" fill="#999999" mask="url(#mask-2)" points="14.5891 21.8929 14.5701 21.9359 5.1501 0.7529 0.0001 0.7529 12.5411 28.9019 16.6011 28.9019 17.1591 27.6569"></polygon>
        </g>
    </g>
</svg>