<?xml version="1.0" encoding="UTF-8"?>
<svg width="175px" height="77px" viewBox="0 0 175 77" version="1.1" xmlns="http://www.w3.org/2000/svg" xmlns:xlink="http://www.w3.org/1999/xlink">
    <!-- Generator: Sketch 41 (35326) - http://www.bohemiancoding.com/sketch -->
    <title>logo</title>
    <desc>Created with Sketch.</desc>
    <defs></defs>
    <g id="Page-1" stroke="none" stroke-width="1" fill="none" fill-rule="evenodd">
        <g id="logo" fill="#231F20">
            <path d="M0.16,16.586176 C0.16,8.750176 5.969,2.676176 14.07,2.676176 C18.961,2.676176 23.277,5.160176 25.57,8.981176 L21.023,11.618176 C19.723,9.250176 17.125,7.797176 14.07,7.797176 C8.836,7.797176 5.395,11.426176 5.395,16.586176 C5.395,21.703176 8.836,25.336176 14.07,25.336176 C17.125,25.336176 19.762,23.883176 21.023,21.551176 L25.57,24.188176 C23.316,28.008176 18.996,30.492176 14.07,30.492176 C5.969,30.492176 0.16,24.379176 0.16,16.586176" id="Fill-809"></path>
            <path d="M122.156,16.586176 C122.156,11.426176 118.371,7.797176 113.52,7.797176 C108.668,7.797176 104.887,11.426176 104.887,16.586176 C104.887,21.703176 108.668,25.336176 113.52,25.336176 C118.371,25.336176 122.156,21.703176 122.156,16.586176 M99.652,16.586176 C99.652,8.750176 105.801,2.676176 113.52,2.676176 C121.238,2.676176 127.426,8.750176 127.426,16.586176 C127.426,24.379176 121.238,30.492176 113.52,30.492176 C105.801,30.492176 99.652,24.379176 99.652,16.586176" id="Fill-810"></path>
            <path d="M169.688,12.192176 C169.688,9.860176 168.043,8.141176 165.789,8.141176 L161.094,8.141176 L161.094,16.242176 L165.789,16.242176 C168.043,16.242176 169.688,14.485176 169.688,12.192176 M174.922,12.192176 C174.922,17.196176 170.949,21.172176 165.789,21.172176 L161.094,21.172176 L161.094,29.957176 L155.82,29.957176 L155.82,3.211176 L165.789,3.211176 C170.949,3.211176 174.922,7.188176 174.922,12.192176" id="Fill-811"></path>
            <polygon id="Fill-812" points="74.266 47.657176 74.266 74.403176 69.031 74.403176 69.031 63.325176 59.098 63.325176 59.098 74.403176 53.824 74.403176 53.824 47.657176 59.098 47.657176 59.098 58.278176 69.031 58.278176 69.031 47.657176"></polygon>
            <path d="M122.156,61.032176 C122.156,55.871176 118.371,52.242176 113.52,52.242176 C108.668,52.242176 104.887,55.871176 104.887,61.032176 C104.887,66.149176 108.668,69.782176 113.52,69.782176 C118.371,69.782176 122.156,66.149176 122.156,61.032176 M99.652,61.032176 C99.652,53.196176 105.801,47.121176 113.52,47.121176 C121.238,47.121176 127.426,53.196176 127.426,61.032176 C127.426,68.825176 121.238,74.938176 113.52,74.938176 C105.801,74.938176 99.652,68.825176 99.652,61.032176" id="Fill-813"></path>
            <path d="M169.688,56.637176 C169.688,54.305176 168.043,52.586176 165.789,52.586176 L161.094,52.586176 L161.094,60.688176 L165.789,60.688176 C168.043,60.688176 169.688,58.930176 169.688,56.637176 M174.922,56.637176 C174.922,61.641176 170.949,65.614176 165.789,65.614176 L161.094,65.614176 L161.094,74.403176 L155.82,74.403176 L155.82,47.657176 L165.789,47.657176 C170.949,47.657176 174.922,51.633176 174.922,56.637176" id="Fill-814"></path>
            <polygon id="Fill-815" points="77.398 0.282176 72.719 0.282176 72.719 4.957176"></polygon>
            <polygon id="Fill-816" points="66.344 11.332176 62.383 11.332176 62.383 0.282176 56.895 0.282176 56.895 20.782176"></polygon>
            <polygon id="Fill-817" points="69.648 10.496176 69.648 15.426176 64.723 15.426176 59.473 20.672176 69.648 20.672176 69.648 32.203176 75.098 32.203176 75.098 5.051176"></polygon>
            <polygon id="Fill-818" points="53.824 26.321176 53.824 32.203176 59.312 32.203176 59.312 20.832176"></polygon>
            <path d="M11.832,61.078176 L15.711,57.188176 C11.84,56.000176 10.824,55.121176 10.824,53.508176 C10.824,51.981176 12.125,50.832176 14.34,50.832176 C16.797,50.832176 18.215,51.996176 19.172,53.719176 L22.867,50.008176 C20.949,47.305176 18.012,45.715176 14.34,45.715176 C9.758,45.715176 5.555,48.618176 5.555,53.660176 C5.555,57.996176 8.445,59.879176 11.832,61.078176" id="Fill-819"></path>
            <path d="M14.398,61.078176 L10.52,64.969176 C10.613,64.996176 10.703,65.024176 10.797,65.051176 C14.77,66.200176 16.566,66.961176 16.566,68.950176 C16.566,70.438176 15.457,71.778176 12.289,71.778176 C9.504,71.778176 7.746,70.641176 6.688,68.813176 L2.863,72.649176 C4.711,75.285176 7.832,76.934176 12.137,76.934176 C17.828,76.934176 21.84,73.879176 21.84,68.871176 C21.84,63.969176 18.207,62.328176 14.398,61.078176" id="Fill-820"></path>
        </g>
    </g>
</svg>