<?xml version="1.0" encoding="UTF-8"?>
<svg width="65px" height="21px" viewBox="0 0 65 21" version="1.1" xmlns="http://www.w3.org/2000/svg" xmlns:xlink="http://www.w3.org/1999/xlink">
    <!-- Generator: Sketch 41 (35326) - http://www.bohemiancoding.com/sketch -->
    <title>separator-light</title>
    <desc>Created with Sketch.</desc>
    <defs></defs>
    <g id="Page-1" stroke="none" stroke-width="1" fill="none" fill-rule="evenodd">
        <g id="separator-light" fill="#FFFFFF">
            <polygon id="Fill-837" points="0 11.422176 0 12.356176 7.398 20.879176 15 12.153176 15 11.223176 7.398 19.950176"></polygon>
            <polygon id="Fill-838" points="32 11.422176 32 12.356176 23.602 20.879176 15 12.153176 15 11.223176 23.602 19.950176"></polygon>
            <polygon id="Fill-840" points="32 11.422176 32 12.356176 40.398 20.879176 49 12.153176 49 11.223176 40.398 19.950176"></polygon>
            <polygon id="Fill-841" points="65 11.422176 65 12.356176 57.102 20.879176 49 12.153176 49 11.223176 57.102 19.950176"></polygon>
            <polygon id="Fill-843" points="0 6.227176 0 7.160176 7.398 15.684176 15 6.957176 15 6.028176 7.398 14.754176"></polygon>
            <polygon id="Fill-844" points="32 6.227176 32 7.160176 23.602 15.684176 15 6.957176 15 6.028176 23.602 14.754176"></polygon>
            <polygon id="Fill-846" points="32 6.227176 32 7.160176 40.398 15.684176 49 6.957176 49 6.028176 40.398 14.754176"></polygon>
            <polygon id="Fill-847" points="65 6.227176 65 7.160176 57.102 15.684176 49 6.957176 49 6.028176 57.102 14.754176"></polygon>
            <polygon id="Fill-849" points="0 1.032176 0 1.965176 7.398 10.489176 15 1.762176 15 0.832176 7.398 9.559176"></polygon>
            <polygon id="Fill-850" points="32 1.032176 32 1.965176 23.602 10.489176 15 1.762176 15 0.832176 23.602 9.559176"></polygon>
            <polygon id="Fill-852" points="32 1.032176 32 1.965176 40.398 10.489176 49 1.762176 49 0.832176 40.398 9.559176"></polygon>
            <polygon id="Fill-853" points="65 1.032176 65 1.965176 57.102 10.489176 49 1.762176 49 0.832176 57.102 9.559176"></polygon>
        </g>
    </g>
</svg>