<?xml version="1.0" encoding="UTF-8"?>
<svg width="41px" height="41px" viewBox="0 0 41 41" version="1.1" xmlns="http://www.w3.org/2000/svg" xmlns:xlink="http://www.w3.org/1999/xlink">
    <!-- Generator: Sketch 41 (35326) - http://www.bohemiancoding.com/sketch -->
    <title>facebook</title>
    <desc>Created with Sketch.</desc>
    <defs></defs>
    <g id="Page-1" stroke="none" stroke-width="1" fill="none" fill-rule="evenodd">
        <g id="facebook" fill="#B3B3B3">
            <path d="M25.656,21.137176 L22.426,21.137176 L22.426,32.657176 L17.637,32.657176 L17.637,21.137176 L15.359,21.137176 L15.359,17.067176 L17.637,17.067176 L17.637,14.434176 C17.637,12.551176 18.531,9.602176 22.469,9.602176 L26.016,9.618176 L26.016,13.567176 L23.441,13.567176 C23.02,13.567176 22.426,13.778176 22.426,14.676176 L22.426,17.071176 L26.074,17.071176 L25.656,21.137176 Z M20.715,0.578176 C9.766,0.578176 0.855,9.489176 0.855,20.438176 C0.855,31.391176 9.766,40.301176 20.715,40.301176 C31.668,40.301176 40.578,31.391176 40.578,20.438176 C40.578,9.489176 31.668,0.578176 20.715,0.578176 L20.715,0.578176 Z" id="Fill-1946"></path>
        </g>
    </g>
</svg>