<?xml version="1.0" encoding="UTF-8"?>
<svg width="41px" height="41px" viewBox="0 0 41 41" version="1.1" xmlns="http://www.w3.org/2000/svg" xmlns:xlink="http://www.w3.org/1999/xlink">
    <!-- Generator: Sketch 41 (35326) - http://www.bohemiancoding.com/sketch -->
    <title>instagram</title>
    <desc>Created with Sketch.</desc>
    <defs></defs>
    <g id="Page-1" stroke="none" stroke-width="1" fill="none" fill-rule="evenodd">
        <g id="instagram" fill="#B3B3B3">
            <path d="M20.391,24.414176 C22.582,24.414176 24.367,22.633176 24.367,20.438176 C24.367,19.575176 24.086,18.774176 23.617,18.121176 C22.895,17.121176 21.719,16.465176 20.391,16.465176 C19.066,16.465176 17.891,17.118176 17.168,18.121176 C16.695,18.774176 16.418,19.575176 16.414,20.438176 C16.414,22.633176 18.199,24.414176 20.391,24.414176" id="Fill-1947"></path>
            <polygon id="Fill-1948" points="29.074 15.575176 29.074 11.746176 28.574 11.746176 25.242 11.758176 25.258 15.586176"></polygon>
            <path d="M31.688,18.121176 L31.688,27.371176 C31.688,29.778176 29.73,31.735176 27.32,31.735176 L13.461,31.735176 C11.055,31.735176 9.098,29.778176 9.098,27.371176 L9.098,13.512176 C9.098,11.102176 11.055,9.145176 13.461,9.145176 L27.32,9.145176 C29.73,9.145176 31.688,11.102176 31.688,13.512176 L31.688,18.121176 Z M20.391,0.578176 C9.441,0.578176 0.531,9.489176 0.531,20.438176 C0.531,31.391176 9.441,40.301176 20.391,40.301176 C31.344,40.301176 40.254,31.391176 40.254,20.438176 C40.254,9.489176 31.344,0.578176 20.391,0.578176 L20.391,0.578176 Z" id="Fill-1949"></path>
            <path d="M26.57,20.438176 C26.57,23.844176 23.801,26.618176 20.391,26.618176 C16.984,26.618176 14.215,23.844176 14.215,20.438176 C14.215,19.621176 14.379,18.836176 14.668,18.121176 L11.297,18.121176 L11.297,27.371176 C11.297,28.567176 12.266,29.532176 13.461,29.532176 L27.32,29.532176 C28.516,29.532176 29.484,28.567176 29.484,27.371176 L29.484,18.121176 L26.113,18.121176 C26.402,18.836176 26.57,19.621176 26.57,20.438176" id="Fill-1950"></path>
        </g>
    </g>
</svg>