<?xml version="1.0" encoding="UTF-8"?>
<svg width="41px" height="41px" viewBox="0 0 41 41" version="1.1" xmlns="http://www.w3.org/2000/svg" xmlns:xlink="http://www.w3.org/1999/xlink">
    <!-- Generator: Sketch 41 (35326) - http://www.bohemiancoding.com/sketch -->
    <title>linkedin</title>
    <desc>Created with Sketch.</desc>
    <defs></defs>
    <g id="Page-1" stroke="none" stroke-width="1" fill="none" fill-rule="evenodd">
        <g id="linkedin" fill="#B3B3B3">
            <path d="M21.449,19.242176 L21.43,19.242176 C21.434,19.231176 21.445,19.219176 21.449,19.207176 L21.449,19.242176 Z M24.336,17.618176 C22.637,17.618176 21.875,18.551176 21.449,19.207176 L21.449,17.844176 L18.25,17.844176 C18.289,18.746176 18.25,27.477176 18.25,27.477176 L21.449,27.477176 L21.449,22.098176 C21.449,21.809176 21.469,21.520176 21.555,21.317176 C21.785,20.739176 22.312,20.145176 23.199,20.145176 C24.355,20.145176 24.82,21.028176 24.82,22.321176 L24.82,27.477176 L28.023,27.477176 L28.023,21.950176 C28.023,18.992176 26.441,17.618176 24.336,17.618176 L24.336,17.618176 Z" id="Fill-1951"></path>
            <polygon id="Fill-1952" points="13.273 27.477176 16.476 27.477176 16.476 17.844176 13.273 17.844176"></polygon>
            <path d="M31.25,29.422176 C31.25,30.266176 30.547,30.950176 29.68,30.950176 L11.617,30.950176 C10.754,30.950176 10.051,30.266176 10.051,29.422176 L10.051,11.149176 C10.051,10.305176 10.754,9.618176 11.617,9.618176 L29.68,9.618176 C30.547,9.618176 31.25,10.305176 31.25,11.149176 L31.25,29.422176 Z M20.715,0.578176 C9.766,0.578176 0.855,9.489176 0.855,20.438176 C0.855,31.391176 9.766,40.301176 20.715,40.301176 C31.668,40.301176 40.578,31.391176 40.578,20.438176 C40.578,9.489176 31.668,0.578176 20.715,0.578176 L20.715,0.578176 Z" id="Fill-1953"></path>
            <path d="M14.895,13.200176 C13.801,13.200176 13.086,13.918176 13.086,14.864176 C13.086,15.789176 13.781,16.528176 14.855,16.528176 L14.875,16.528176 C15.992,16.528176 16.688,15.789176 16.688,14.864176 C16.664,13.918176 15.992,13.200176 14.895,13.200176" id="Fill-1954"></path>
        </g>
    </g>
</svg>