<?xml version="1.0" encoding="UTF-8"?>
<svg width="76px" height="76px" viewBox="0 0 76 76" version="1.1" xmlns="http://www.w3.org/2000/svg" xmlns:xlink="http://www.w3.org/1999/xlink">
    <!-- Generator: Sketch 41.2 (35397) - http://www.bohemiancoding.com/sketch -->
    <title>play</title>
    <desc>Created with Sketch.</desc>
    <defs></defs>
    <g id="Page-1" stroke="none" stroke-width="1" fill="none" fill-rule="evenodd">
        <g id="play" transform="translate(0.000000, -1.000000)" fill="#FFFFFF">
            <path d="M30.1353,55.1272 L30.1353,22.2152 L54.2743,38.6712 L30.1353,55.1272 Z M57.2113,37.6352 L29.5903,18.8002 C29.2033,18.5362 28.7073,18.5112 28.2953,18.7262 C27.8863,18.9412 27.6283,19.3692 27.6283,19.8352 L27.6283,57.5072 C27.6283,57.9732 27.8863,58.4012 28.2953,58.6162 C28.4813,58.7152 28.6813,58.7642 28.8783,58.7642 C29.1303,58.7642 29.3753,58.6902 29.5903,58.5422 L57.2113,39.7072 C57.5553,39.4752 57.7643,39.0892 57.7643,38.6712 C57.7643,38.2542 57.5553,37.8672 57.2113,37.6352 L57.2113,37.6352 Z" id="Fill-1"></path>
            <g id="Group-5" transform="translate(0.000000, 0.342300)">
                <path d="M37.6711,73.4854 C18.2831,73.4854 2.5141,57.7174 2.5141,38.3284 C2.5141,18.9404 18.2831,3.1724 37.6711,3.1724 C57.0591,3.1724 72.8281,18.9404 72.8281,38.3284 C72.8281,57.7174 57.0591,73.4854 37.6711,73.4854 M37.6711,0.6574 C16.8981,0.6574 0.0001,17.5564 0.0001,38.3284 C0.0001,59.1014 16.8981,76.0004 37.6711,76.0004 C58.4431,76.0004 75.3421,59.1014 75.3421,38.3284 C75.3421,17.5564 58.4431,0.6574 37.6711,0.6574" id="Fill-3"></path>
            </g>
        </g>
    </g>
</svg>