<?xml version="1.0" encoding="UTF-8"?>
<svg width="41px" height="41px" viewBox="0 0 41 41" version="1.1" xmlns="http://www.w3.org/2000/svg" xmlns:xlink="http://www.w3.org/1999/xlink">
    <!-- Generator: Sketch 41 (35326) - http://www.bohemiancoding.com/sketch -->
    <title>youtube</title>
    <desc>Created with Sketch.</desc>
    <defs></defs>
    <g id="Page-1" stroke="none" stroke-width="1" fill="none" fill-rule="evenodd">
        <g id="youtube" fill="#B3B3B3">
            <path d="M16.664,24.836176 C19.676,23.278176 22.664,21.727176 25.676,20.168176 C22.652,18.590176 19.668,17.032176 16.664,15.465176 L16.664,24.836176 Z" id="Fill-1955"></path>
            <path d="M33.996,27.137176 C33.648,28.645176 32.418,29.758176 30.934,29.922176 C27.418,30.313176 23.863,30.317176 20.32,30.313176 C16.781,30.317176 13.223,30.313176 9.707,29.922176 C8.223,29.758176 6.992,28.645176 6.645,27.137176 C6.152,24.992176 6.152,22.649176 6.152,20.438176 C6.152,18.227176 6.156,15.887176 6.652,13.739176 C6.996,12.231176 8.23,11.118176 9.715,10.953176 C13.23,10.563176 16.785,10.559176 20.328,10.563176 C23.867,10.559176 27.426,10.563176 30.938,10.953176 C32.422,11.118176 33.656,12.231176 34.004,13.739176 C34.496,15.887176 34.492,18.231176 34.492,20.438176 C34.492,22.649176 34.492,24.992176 33.996,27.137176 M20.324,0.368176 C9.238,0.368176 0.25,9.352176 0.25,20.438176 C0.25,31.524176 9.238,40.508176 20.324,40.508176 C31.406,40.508176 40.391,31.524176 40.391,20.438176 C40.391,9.352176 31.406,0.368176 20.324,0.368176" id="Fill-1956"></path>
        </g>
    </g>
</svg>